# xmcd
#
# Track frame offsets:
#  150
#  19900
#  48254
#  63400
#  78848
#  95943
#  118636
#  140375
#  167464
#  182281
#  200030
#  226119
#
# Disc length: 3271 seconds
#
# Revision: 2
# Processed by: cddbd v1.5.1PL0 Copyright (c) Steve Scherf et al.
# Submitted via: Collectorz.com_Music_Collector 6.9
#
DISCID=960cc50c
DTITLE=Lightnin' Moe - Undercover Lover
DYEAR=2004
DGENRE=Blues
TTITLE0=Pawnshop Boogie
TTITLE1=Undercover Lover
TTITLE2=Someday I'll Be Gone
TTITLE3=Summer Girls
TTITLE4=Devil In Disguise
TTITLE5=Hard Working Man
TTITLE6=Nobody But You
TTITLE7=Low Budget Show Business
TTITLE8=Harder The Hard Times
TTITLE9=You're Fine
TTITLE10=Who's Gonna Break Your Fall
TTITLE11=Hot To Trot
EXTD=
EXTT0=
EXTT1=
EXTT2=
EXTT3=
EXTT4=
EXTT5=
EXTT6=
EXTT7=
EXTT8=
EXTT9=
EXTT10=
EXTT11=
PLAYORDER=
